<svg xmlns="http://www.w3.org/2000/svg" enable-background="new 0 0 70 70" viewBox="0 0 70 70" id="graph"><path d="M12 55.8125h6.840332c.5522461 0 1-.4472656 1-1v-9.1757813c0-.5527344-.4477539-1-1-1H12c-.5522461 0-1 .4472656-1 1V54.8125C11 55.3652344 11.4477539 55.8125 12 55.8125zM13 46.6367188h4.840332V53.8125H13V46.6367188zM25.0537109 34.4863281c-.5522461 0-1 .4472656-1 1V54.8125c0 .5527344.4477539 1 1 1h6.8398438c.5522461 0 1-.4472656 1-1V35.4863281c0-.5527344-.4477539-1-1-1H25.0537109zM30.8935547 53.8125h-4.8398438V36.4863281h4.8398438V53.8125zM38.1069336 24.3369141c-.5522461 0-1 .4472656-1 1V54.8125c0 .5527344.4477539 1 1 1h6.8398438c.5522461 0 1-.4472656 1-1V25.3369141c0-.5527344-.4477539-1-1-1H38.1069336zM43.9467773 53.8125h-4.8398438V26.3369141h4.8398438V53.8125zM58 14.1875h-6.8398438c-.5522461 0-1 .4472656-1 1v39.625c0 .5527344.4477539 1 1 1H58c.5522461 0 1-.4472656 1-1v-39.625C59 14.6347656 58.5522461 14.1875 58 14.1875zM57 53.8125h-4.8398438v-37.625H57V53.8125z"></path></svg>